<svg height="512" viewBox="0 0 60 60" width="512" xmlns="http://www.w3.org/2000/svg"><g id="Page-1" fill="none" fill-rule="evenodd"><g id="029---Preparing-Vegetables" fill-rule="nonzero" transform="translate(0 -1)"><rect id="Rectangle-path" fill="#91562d" height="6" rx="1" width="58" x="1" y="54"/><path id="Shape" d="m58 54h-3c.5522847 0 1 .4477153 1 1v4c0 .5522847-.4477153 1-1 1h3c.5522847 0 1-.4477153 1-1v-4c0-.5522847-.4477153-1-1-1z" fill="#6d4122"/><path id="Shape" d="m54.24 42.59c-4.6887376 4.6798514-12.2812624 4.6798514-16.97 0l-14.25-14.26c-.3744562-.3736892-.5848881-.8809811-.5848881-1.41s.2104319-1.0363108.5848881-1.41l1.42-1.42 15.66 15.67c3.1237697 3.1217228 8.1862303 3.1217228 11.31 0z" fill="#7f8e94"/><path id="Shape" d="m51.41 39.76c-.509367.5055344-1.0845441.9401127-1.71 1.292l1.54 1.538c-1.8808337 1.8838904-4.3379391 3.0842814-6.98 3.41.4973541.0659205.9983123.1009876 1.5.105 3.1810743.0048087 6.2328934-1.2583853 8.48-3.51z" fill="#545c60"/><path id="Shape" d="m51.41 39.76c-3.1237697 3.1217228-8.1862303 3.1217228-11.31 0l-15.66-15.67 5.65-5.65z" fill="#607d8b"/><path id="Shape" d="m30.09 18.44-1.5 1.5 19.82 19.82c-1.1317139 1.1352071-2.5799793 1.9020383-4.155 2.2 2.6022352.4981667 5.2821952-.3258601 7.155-2.2z" fill="#37474f"/><path id="Rectangle-path" d="m25.263 16.434h4v4h-4z" fill="#607d8b" transform="matrix(.707 .707 -.707 .707 21.02 -13.879)"/><path id="Shape" d="m10.3637475 6.36365683h16c.5522847 0 1 .44771525 1 1v5.99999997c0 1.6568543-1.3431458 3-3 3h-14c-1.65685428 0-3.00000003-1.3431457-3.00000003-3v-3.99999997c0-1.65685425 1.34314575-3 3.00000003-3z" fill="#a0522d" transform="matrix(.707 .707 -.707 .707 13.121 -8.95)"/><path id="Shape" d="m27.263 14.192-11.313-11.313c-.9622056-.95856364-2.4492362-1.14906121-3.622-.464.2267778.12673043.4359042.28273467.622.464l11.313 11.313c.187777.1875683.2932867.4420908.2932867.7075s-.1055097.5199317-.2932867.7075l-4.242 4.242c-.1859364.1810196-.3946988.3370031-.621.464 1.1724553.684902 2.6591195.4943987 3.621-.464l4.242-4.242c.187777-.1875683.2932867-.4420908.2932867-.7075s-.1055097-.5199317-.2932867-.7075z" fill="#783e22"/><path id="Shape" d="m15 54c-2.209 0-4-4.477-4-10s1.791-10 4-10c2 0 6 2 9 2 2.209 0 4 4.029 4 9s-1.791 9-4 9z" fill="#ff9801"/><path id="Shape" d="m24 36c-3 0-7-2-9-2-.3732136.0103012-.7346334.1329818-1.037.352 2.094.572 4.837 1.648 7.037 1.648s4 4.029 4 9-1.791 9-4 9h3c2.209 0 4-4.029 4-9s-1.791-9-4-9z" fill="#f57c00"/><path id="Shape" d="m21 51c-.3464401-.000185-.6681037-.1796678-.8501945-.4743943-.1820909-.2947265-.1986643-.6627032-.0438055-.9726057 1.794-3.588-.035-9.181-.053-9.237-.1128959-.3394023-.0361471-.7132523.201336-.9807242.237483-.2674719.599621-.3879304.95-.316.350379.0719305.6357681.3253219.748664.6647242.088.261 2.107 6.442-.053 10.763-.1702259.3406694-.5191744.5550788-.9.553z" fill="#f57c00"/><rect id="Rectangle-path" fill="#ff9801" height="4" rx="1" width="14" x="43" y="50"/><path id="Shape" d="m56 50h-3c.5522847 0 1 .4477153 1 1v2c0 .5522847-.4477153 1-1 1h3c.5522847 0 1-.4477153 1-1v-2c0-.5522847-.4477153-1-1-1z" fill="#f57c00"/><g fill="#000"><path id="Shape" d="m58 53v-2c0-1.1045695-.8954305-2-2-2h-12c-1.1045695 0-2 .8954305-2 2v2h-14.936c1.3821234-2.4326098 2.0529486-5.2046148 1.936-8 0-5.7-2.149-10-5-10-1.7313387-.137191-3.4359675-.509269-5.067-1.106-1.2648447-.4734669-2.5877693-.7741775-3.933-.894-2.5 0-4.109 3.359-4.72 7.337-.337-.106-.669-.215-1.038-.307-2.64822403-.6663513-5.45255203-.257207-7.8 1.138-.4491666.309565-.5673602.9219935-.26564763 1.376472.30171258.4544784.91199462.583297 1.37164763.289528 1.88187613-1.0726437 4.10372117-1.3819194 6.207-.864.465.116.894.249 1.3.389-.01.154-.02.307-.028.461-3.32751055.4826159-6.4007897 2.0558338-8.738 4.473-.25995658.2510745-.3642126.6228779-.27269716.9725073.09151544.3496295.3645604.6226744.71418984.7141899.34962943.0915154.72143285-.0127406.97250732-.2726972 1.96368618-2.0321384 4.52453494-3.3847289 7.31-3.861.009.243.023.484.038.726-2.56163404 1.903732-4.5529917 4.4726456-5.758 7.428h-2.293c-1.1045695 0-2 .8954305-2 2v4c0 1.1045695.8954305 2 2 2h56c1.1045695 0 2-.8954305 2-2v-4c0-1.1045695-.8954305-2-2-2zm-14-2h12v2h-12zm-29-16c1.1412136.1345674 2.2626056.4030839 3.341.8 1.8199276.6661793 3.7253275 1.0702224 5.659 1.2 1.224 0 3 3.117 3 8s-1.776 8-3 8h-9c-1.02 0-2.421-2.443-2.86-6.437 1.007975-.6578444 2.0850865-1.2031069 3.212-1.626.3190847-.1175026.5560708-.389814.6283962-.7220653s-.0300258-.6784306-.2713962-.9179347c-1.0432404-.9362266-2.233925-1.6937507-3.524-2.242.482-3.771 1.828-6.055 2.815-6.055zm-4.68 12.939c.2457489 1.7814375.8302693 3.4993572 1.722 5.061h-5.565c.92533582-1.9296668 2.23273104-3.6514277 3.843-5.061zm47.68 11.061h-56v-4h56z"/><path id="Shape" d="m27.971 13.485-11.314-11.313c-.7501514-.7501901-1.7675983-1.17164575-2.8285-1.17164575s-2.0783486.42145565-2.8285 1.17164575l-2.828 2.828c-.7501901.75015144-1.17164575 1.76759833-1.17164575 2.8285s.42145565 2.07834856 1.17164575 2.8285l2.828 2.827 7.07 7.07c.7501514.7501901 1.7675983 1.1716458 2.8285 1.1716458s2.0783486-.4214557 2.8285-1.1716458l.707-.707 1.414 1.414-3.535 3.539c-1.1679607 1.173207-1.1679607 3.069793 0 4.243l14.252 14.25c5.076727 5.0762983 13.307273 5.0762983 18.384 0 .3903819-.3904999.3903819-1.0235001 0-1.414l-24.149-24.151-2.317-2.317c.1968927-.6871203.0006269-1.4268618-.511-1.926zm-8.486 5.657-1.414-1.414 1.414-1.415c.3693233-.3938446.3593222-1.0097448-.0225937-1.3913906s-.9978231-.3912112-1.3914063-.0216094l-1.414 1.415-3.536-3.536 1.414-1.414c.3907415-.3904653.3909653-1.0237585.0005-1.4145-.3904653-.39074146-1.0237585-.39096532-1.4145-.0005l-1.414 1.414-2.121-2.121c-.37524801-.37509602-.58607293-.88392663-.58607293-1.4145s.21082492-1.03940398.58607293-1.4145l2.828-2.828c.375096-.37524801.8839266-.58607293 1.4145-.58607293s1.039404.21082492 1.4145.58607293l11.314 11.314-2.829 2.829-1.414 1.413c-.7912985.7564511-2.0377015.7564511-2.829 0zm6.364-.707 1.415-1.414 1.414 1.414-1.415 1.414zm2.122 3.536 2.121-2.122 19.851 19.851c-2.7842458 2.0813163-6.67404 1.8041126-9.135-.651l-14.959-14.957 2.12-2.12zm17.786 23.129c-2.918948.0079893-5.7197536-1.1522313-7.778-3.222l-14.251-14.251c-.3903819-.3904999-.3903819-1.0235001 0-1.414l.707-.707 14.959 14.958c3.2410735 3.2385689 8.3978734 3.525297 11.978.666l1.428 1.425c-1.9744318 1.6517426-4.4687877 2.5530823-7.043 2.545z"/></g></g></g></svg>