<svg id="Capa_1" enable-background="new 0 0 512.027 512.027" height="512" viewBox="0 0 512.027 512.027" width="512" xmlns="http://www.w3.org/2000/svg"><g><g><g><path d="m145.987 262.342-28.882-17.939 74.914-125.793c4.867-8.172 15.492-10.76 23.571-5.742 7.869 4.888 10.376 15.176 5.636 23.136z" fill="#ecf4ff"/><g><path d="m131.124 108.315c-13.88-15.061-13.703-38.667.385-53.533 5.267-5.557 11.746-9.223 18.613-11.002 3.401-.881 6.077-3.557 6.958-6.958 1.779-6.867 5.445-13.346 11.002-18.613 14.866-14.088 38.472-14.265 53.533-.385 14.646 13.497 16.596 35.27 5.864 50.979-.487.713-.854 1.479-1.102 2.269-.902 2.882-3.267 7.716-1.038 9.945l8.165 3.491 9.197 9.197 4.439 7.186 7.16 4.414 47.57 47.57-35.696 35.696-41.92-41.92-5.871-10.27-7.803-3.404-12.194-12.194-5.69-7.193c-2.033-2.033-4.884-1.281-7.557-.713-1.061.226-2.094.659-3.037 1.303-15.709 10.731-37.481 8.78-50.978-5.865z" fill="#f7f6f7"/><g><path d="m227.366 79.931c-2.229-2.228-1.892-5.978-.989-8.86.247-.79.614-1.555 1.102-2.269 10.732-15.709 8.782-37.482-5.864-50.979-11.446-10.548-27.825-12.969-41.554-7.343 4.163 1.707 8.086 4.148 11.554 7.344 14.646 13.497 16.596 35.27 5.864 50.979-2.265 3.315-1.927 7.753.913 10.593l73.478 73.478-20.696 20.696 15 15 35.696-35.696-68.366-68.366z" fill="#e2dfe3"/></g><path d="m336.5 362.337c38.752 38.752 101.788 38.419 140.122-.999 37.382-38.438 37.157-99.463-.491-137.64-17.415-17.66-39.83-27.337-62.727-29.037-29.344-2.178-57.32-13.272-80-32.019l-31.693-26.197c-14.671-12.126-36.156-11.109-49.615 2.35-13.459 13.459-14.476 34.945-2.35 49.615l27.571 33.355c17.947 21.713 28.937 48.492 30.532 76.617 1.319 23.276 10.868 46.172 28.651 63.955z" fill="#c6855b"/><path d="m476.131 223.698c-17.416-17.66-39.83-27.338-62.727-29.037-29.344-2.178-57.32-13.271-80-32.019l-31.693-26.197c-14.67-12.126-36.156-11.109-49.615 2.35-5.56 5.56-8.991 12.492-10.254 19.746 10.304-1.795 21.26.788 29.87 7.904l31.693 26.197c22.68 18.747 50.656 29.841 80 32.019 22.897 1.699 45.312 11.377 62.727 29.037 32.871 33.333 37.207 84.081 12.898 122.007 6.265-4.009 12.176-8.798 17.593-14.368 37.381-38.438 37.156-99.462-.492-137.639z" fill="#c17e4e"/></g></g><path d="m157.12 456.527h-119.607c-1.731-29.943-.667-76.074 16.108-128.786 8.636-27.138 19.554-50.103 30.232-68.747 7.785-13.593 22.253-21.967 37.917-21.967 29.483 0 50.382 28.556 41.709 56.734-5.298 17.215-9.75 36.865-12.145 58.683-4.775 43.499.36 79.789 5.786 104.083z" fill="#ecf4ff"/><path d="m163.481 293.761c8.673-28.179-12.226-56.734-41.709-56.734-5.182 0-10.225.934-14.946 2.652 21.028 7.697 33.757 31.01 26.656 54.082-5.298 17.215-9.75 36.865-12.145 58.683-4.776 43.499.359 79.789 5.785 104.083h30c-5.426-24.294-10.561-60.584-5.785-104.083 2.394-21.817 6.845-41.468 12.144-58.683z" fill="#ddeafb"/><path d="m497.513 504.527h-483c-3.866 0-7-3.134-7-7v-34c0-3.866 3.134-7 7-7h483c3.866 0 7 3.134 7 7v34c0 3.866-3.134 7-7 7z" fill="#cbe2ff"/><path d="m497.513 456.527h-30c3.866 0 7 3.134 7 7v34c0 3.866-3.134 7-7 7h30c3.866 0 7-3.134 7-7v-34c0-3.866-3.134-7-7-7z" fill="#9dc6fb"/><path d="m451.513 456.527h-55v-71.5c0-15.188 12.312-27.5 27.5-27.5 15.188 0 27.5 12.312 27.5 27.5z" fill="#ecf4ff"/><path d="m424.013 357.527c-5.536 0-10.685 1.642-15 4.456 7.523 4.907 12.5 13.392 12.5 23.044v71.5h30v-71.5c0-15.188-12.312-27.5-27.5-27.5z" fill="#ddeafb"/></g><path d="m497.513 449.027h-38.5v-64c0-.18-.011-.357-.014-.537 8.413-4.857 16.137-10.864 23.001-17.925 16.884-17.362 27.388-40.149 29.576-64.162 2.161-23.699-3.808-47.677-16.806-67.517-2.27-3.465-6.919-4.432-10.384-2.163-3.465 2.27-4.434 6.919-2.163 10.384 11.149 17.019 16.27 37.594 14.415 57.934-1.878 20.604-10.896 40.159-25.394 55.068-4.868 5.008-10.24 9.387-16.02 13.112-5.785-11.376-17.599-19.194-31.212-19.194-18.301 0-33.356 14.122-34.866 32.039-17.837-3.389-34.414-12.104-47.342-25.034-15.807-15.798-25.209-36.775-26.474-59.067-1.643-29.062-13.092-57.819-32.237-80.975l-27.569-33.36c-4.348-5.262-6.742-11.914-6.742-18.732 0-7.855 3.06-15.242 8.614-20.797 5.341-5.342 12.207-8.232 19.204-8.612.435.023.871.011 1.303-.042 6.708-.065 13.458 2.173 19.03 6.781l31.691 26.201c23.896 19.744 53.02 31.4 84.222 33.708 16.995 1.262 33.208 7.231 46.888 17.266 3.339 2.451 8.033 1.729 10.483-1.612 2.449-3.34 1.728-8.033-1.612-10.483-15.949-11.698-34.846-18.659-54.65-20.129-28.087-2.077-54.29-12.559-75.773-30.311l-31.689-26.2c-7.775-6.429-17.069-9.808-26.429-10.207-.294-1.209-47.545-45.744-46.399-47.42 12.99-19.001 9.993-45.109-6.969-60.728-17.997-16.589-46.011-16.391-63.771.451-6.376 6.043-10.906 13.71-13.098 22.158-.204.784-.811 1.396-1.584 1.596-8.461 2.192-16.128 6.723-22.174 13.102-16.841 17.773-17.043 45.789-.459 63.782 13.982 15.161 36.348 19.145 54.505 10.527l-63.016 105.819c-16.496 1.519-31.44 11.003-39.754 25.52-10.654 18.603-19.695 38.236-26.874 58.355-1.393 3.901.642 8.192 4.543 9.584 3.898 1.393 8.191-.642 9.584-4.543 6.882-19.286 15.55-38.107 25.763-55.941 6.428-11.224 18.464-18.195 31.41-18.195 11.587 0 22.177 5.341 29.054 14.652 6.932 9.386 8.932 21.186 5.487 32.376-6.022 19.567-10.205 39.777-12.432 60.07-3.571 32.52-2.202 65.239 4.032 97.401h-103.245c-1.24-32.803 2.089-65.442 9.922-97.125.993-4.021-1.46-8.087-5.481-9.081s-8.086 1.46-9.081 5.481c-8.125 32.865-11.599 66.71-10.365 100.725h-15.149c-7.995 0-14.5 6.505-14.5 14.5v34c0 7.995 6.505 14.5 14.5 14.5h483c7.995 0 14.5-6.505 14.5-14.5v-34c0-7.995-6.504-14.5-14.5-14.5zm-93.5-64c0-11.028 8.972-20 20-20s20 8.972 20 20v64h-40zm-157.245-276.648 15.153 15.152c-5.509 2.183-10.672 5.503-15.131 9.962-4.388 4.389-7.733 9.538-9.937 15.146l-10.822-10.822c.407-4.538 1.769-10.345 5.453-16.131 4.511-7.084 10.564-11.096 15.284-13.307zm-11.068-11.068c-5.657 3.377-11.905 8.525-16.868 16.319-2.494 3.916-4.232 7.83-5.437 11.551l-12.052-12.052c1.87-4.56 4.967-10.044 10.078-15.135 5.056-5.036 10.491-8.099 15.01-9.952zm-57.826 10.673c-12.891 8.804-30.62 6.762-41.235-4.75-11.255-12.212-11.115-31.231.318-43.298 4.109-4.336 9.312-7.413 15.046-8.898 6.032-1.562 10.76-6.284 12.341-12.338 1.488-5.737 4.565-10.941 8.9-15.051 12.056-11.433 31.07-11.567 43.289-.305 11.522 10.61 13.564 28.336 4.746 41.233-2.175 3.186-3.052 6.921-2.702 10.529-5.521 2.515-11.824 6.365-17.743 12.26-5.988 5.965-9.888 12.334-12.428 17.909-3.607-.348-7.344.532-10.532 2.709zm-26.623 130.862c-5.238-3.714-11.118-6.403-17.404-7.905l61.246-102.848 13.86 13.86zm7.54 114.416c2.124-19.354 6.113-38.631 11.857-57.295 4.956-16.104 1.895-33.088-8.316-46.412l57.563-96.659 13.929 13.93c.422 9.617 3.984 18.912 10.137 26.358l27.57 33.362c17.123 20.709 27.359 46.373 28.822 72.266 1.475 25.979 12.429 50.423 30.845 68.827 15.699 15.7 36.023 26.051 57.813 29.615v51.772h-225.818c-6.429-31.598-7.913-63.784-4.402-95.764zm338.222 143.765h-482v-33h142.078c.008 0 .015.002.023.002.012 0 .024-.002.035-.002h339.864z"/></g></svg>