<svg id="Capa_1" enable-background="new 0 0 510.811 510.811" height="512" viewBox="0 0 510.811 510.811" width="512" xmlns="http://www.w3.org/2000/svg"><g><path d="m136.841 169.318 52.609 19.434 15.329 70.916c9.337 43.2 39.664 78.134 81.123 93.45l42.884 15.842c10.455 3.862 21.21 6.249 32.021 7.179v34.339h30v-35.511c10.688-1.768 21.206-4.981 31.312-9.634 29.609-13.634 52.136-37.983 63.432-68.561 18.901-51.166 1.201-107.06-39.799-138.819.866 8.917-.213 18.156-3.519 27.107-4.434 12.003-12.349 22.162-22.89 29.376-10.276 7.033-22.275 10.751-34.7 10.751-7.266 0-14.422-1.283-21.269-3.812l-68.708-25.381c-15.382-5.682-27.631-17.014-34.49-31.909s-7.507-31.569-1.825-46.951c3.984-10.786 10.788-20.075 19.774-27.084l-97.985-36.196z"/><path d="m286.492 127.528c-6.007 16.262 2.306 34.316 18.568 40.323l68.708 25.381c3.587 1.325 7.261 1.953 10.874 1.953 12.766 0 24.767-7.847 29.449-20.522 6.007-16.263-2.307-34.316-18.569-40.324l-68.707-25.381c-3.587-1.325-7.261-1.953-10.874-1.953-12.766.002-24.767 7.848-29.449 20.523z"/><path d="m113.473 146.191 38.525-102.733-117.643-43.458-12.6 34.105c-6.016 16.287-5.33 33.941 1.932 49.712s20.231 27.769 36.518 33.785l23.268 8.595v284.28h30z"/><path d="m18.594 440.478h473.667v70.334h-473.667z"/></g></svg>