<?xml version="1.0" encoding="iso-8859-1"?>
<!-- Generator: Adobe Illustrator 19.0.0, SVG Export Plug-In . SVG Version: 6.00 Build 0)  -->
<svg version="1.1" id="Capa_1" xmlns="http://www.w3.org/2000/svg" xmlns:xlink="http://www.w3.org/1999/xlink" x="0px" y="0px"
	 viewBox="0 0 511.999 511.999" style="enable-background:new 0 0 511.999 511.999;" xml:space="preserve">
<g>
	<path style="fill:#DD6A56;" d="M346.278,35.569l4.85,6.828c3.079,4.335,8.238,6.696,13.531,6.193l4.667-0.443
		c4.874-0.463,8.021,5.12,5.027,8.994c-7.779,10.066-23.522,22.486-49.688,10.546c-26.166-11.94-27.101-31.971-24.596-44.443
		c0.964-4.8,7.243-6.082,10.088-2.097l2.723,3.815c3.089,4.328,8.253,6.677,13.546,6.162l8.336-0.811
		C339.265,29.876,343.658,31.881,346.278,35.569z"/>
	<path style="fill:#DD6A56;" d="M478.832,455.045l0.046-8.375c0.029-5.317,2.895-10.214,7.516-12.844l4.074-2.319
		c4.255-2.422,3.622-8.799-1.054-10.249c-12.15-3.768-32.172-4.887-46.726,19.92c-14.554,24.807-3.809,41.739,5.408,50.506
		c3.547,3.374,9.423,0.815,9.461-4.08l0.037-4.687c0.042-5.317,2.918-10.207,7.545-12.827l7.288-4.126
		C476.363,463.734,478.807,459.569,478.832,455.045z"/>
</g>
<path id="SVGCleanerId_0" style="fill:#DD6A56;" d="M256.601,294.588c-20.34-64.369-19.951-132.203,1.126-196.17
	c9.429-28.616,40.271-44.169,68.886-34.74c28.618,9.429,44.17,40.272,34.741,68.886c-13.867,42.087-14.115,86.746-0.716,129.149
	c13.399,42.402,39.263,78.809,74.797,105.286c24.159,18.001,29.153,52.18,11.15,76.34c-18.002,24.16-52.18,29.152-76.341,11.15
	C316.238,414.25,276.941,358.956,256.601,294.588z"/>
<g>
	<path id="SVGCleanerId_0_1_" style="fill:#DD6A56;" d="M256.601,294.588c-20.34-64.369-19.951-132.203,1.126-196.17
		c9.429-28.616,40.271-44.169,68.886-34.74c28.618,9.429,44.17,40.272,34.741,68.886c-13.867,42.087-14.115,86.746-0.716,129.149
		c13.399,42.402,39.263,78.809,74.797,105.286c24.159,18.001,29.153,52.18,11.15,76.34c-18.002,24.16-52.18,29.152-76.341,11.15
		C316.238,414.25,276.941,358.956,256.601,294.588z"/>
</g>
<path style="opacity:0.15;enable-background:new    ;" d="M435.435,366.999c-32.421-24.158-56.787-56.585-70.985-94.287
	c-102.944-9.127-75.813-163.423-45.468-210.948c-26.274-4.65-52.66,10.571-61.254,36.655
	c-21.077,63.967-21.466,131.801-1.126,196.17c19.593,62.005,56.784,115.583,107.761,155.402
	c33.215-10.786,72.302-32.166,92.409-47.425C454.692,388.86,447.428,375.935,435.435,366.999z"/>
<g style="opacity:0.2;">
	<path d="M338.936,298.82c-1.165,0-2.347-0.272-3.453-0.847l-54.442-28.297c-3.675-1.91-5.106-6.438-3.196-10.114
		c1.911-3.675,6.439-5.104,10.114-3.196l54.442,28.297c3.675,1.91,5.106,6.439,3.196,10.114
		C344.262,297.347,341.646,298.82,338.936,298.82z"/>
	<path d="M328.081,231.467c-1.165,0-2.347-0.273-3.453-0.847l-54.442-28.297c-3.675-1.91-5.106-6.438-3.196-10.114
		c1.911-3.674,6.438-5.104,10.114-3.196l54.442,28.297c3.675,1.91,5.106,6.438,3.196,10.114
		C333.406,229.994,330.791,231.467,328.081,231.467z"/>
	<path d="M368.755,360.181c-1.165,0-2.347-0.272-3.453-0.847l-54.442-28.297c-3.675-1.91-5.106-6.438-3.196-10.114
		c1.911-3.675,6.438-5.105,10.114-3.196l54.442,28.297c3.675,1.91,5.106,6.439,3.196,10.114
		C374.08,358.708,371.464,360.181,368.755,360.181z"/>
</g>
<g>
	<path style="fill:#DD6A56;" d="M101.02,58.598l7.829,2.975c4.97,1.889,10.571,0.981,14.689-2.381l3.631-2.964
		c3.793-3.096,9.513-0.208,9.181,4.677c-0.864,12.692-7.036,31.771-35.422,36.406c-28.385,4.635-40.306-11.49-45.163-23.248
		c-1.869-4.525,2.636-9.083,7.216-7.354l4.386,1.655c4.974,1.878,10.573,0.957,14.684-2.415l6.476-5.311
		C92.025,57.769,96.791,56.991,101.02,58.598z"/>
	<path style="fill:#DD6A56;" d="M444.531,333.427l-4.621-6.985c-2.934-4.435-3.277-10.098-0.9-14.854l2.095-4.193
		c2.188-4.38-1.885-9.327-6.578-7.93c-12.193,3.628-29.453,13.837-27.746,42.548s20.055,36.802,32.592,38.96
		c4.825,0.83,8.284-4.565,5.592-8.654l-2.577-3.915c-2.923-4.441-3.254-10.105-0.866-14.856l3.761-7.483
		C447.313,342.02,447.027,337.2,444.531,333.427z"/>
</g>
<path id="SVGCleanerId_1" style="fill:#DD6A56;" d="M170.599,323.724c-52.712-42.173-90.126-98.757-108.198-163.637
	c-8.084-29.024,8.891-59.107,37.915-67.191c29.026-8.085,59.108,8.892,67.191,37.915c11.89,42.687,36.53,79.936,71.253,107.717
	c34.724,27.781,76.47,43.645,120.726,45.878c30.09,1.518,53.254,27.141,51.735,57.233c-1.518,30.091-27.142,53.254-57.233,51.735
	C286.725,389.981,223.31,365.896,170.599,323.724z"/>
<g>
	<path id="SVGCleanerId_1_1_" style="fill:#DD6A56;" d="M170.599,323.724c-52.712-42.173-90.126-98.757-108.198-163.637
		c-8.084-29.024,8.891-59.107,37.915-67.191c29.026-8.085,59.108,8.892,67.191,37.915c11.89,42.687,36.53,79.936,71.253,107.717
		c34.724,27.781,76.47,43.645,120.726,45.878c30.09,1.518,53.254,27.141,51.735,57.233c-1.518,30.091-27.142,53.254-57.233,51.735
		C286.725,389.981,223.31,365.896,170.599,323.724z"/>
</g>
<path style="opacity:0.1;enable-background:new    ;" d="M359.487,284.405c-13.469-0.68-26.702-2.629-39.579-5.785
	c-28.545,10.879-78.384,15.264-136.968-7.625c-61.451-24.009-78.05-133.805-70.225-180.049c-4.111,0.172-8.265,0.799-12.399,1.95
	c-29.024,8.084-46,38.166-37.915,67.191c18.072,64.88,55.486,121.465,108.198,163.637c52.711,42.172,116.127,66.257,183.39,69.65
	c30.092,1.518,55.715-21.644,57.233-51.735C412.741,311.547,389.577,285.924,359.487,284.405z"/>
<g style="opacity:0.2;">
	<path d="M176.212,289.472c-3.771,0-7.019-2.837-7.445-6.672c-0.457-4.117,2.509-7.825,6.626-8.282l60.982-6.773
		c4.12-0.458,7.825,2.509,8.282,6.626c0.458,4.117-2.509,7.825-6.626,8.282l-60.982,6.773
		C176.768,289.457,176.488,289.472,176.212,289.472z"/>
	<path d="M129.722,239.543c-3.772,0-7.019-2.837-7.445-6.672c-0.458-4.117,2.509-7.825,6.626-8.282l60.982-6.774
		c4.116-0.455,7.825,2.509,8.282,6.626c0.458,4.117-2.509,7.825-6.626,8.282l-60.982,6.774
		C130.278,239.528,129.998,239.543,129.722,239.543z"/>
	<path d="M235.126,323.873c-3.771,0-7.019-2.837-7.445-6.672c-0.458-4.117,2.509-7.825,6.626-8.282l60.982-6.774
		c4.115-0.455,7.825,2.509,8.282,6.626s-2.509,7.825-6.626,8.282l-60.982,6.774C235.682,323.858,235.403,323.873,235.126,323.873z"
		/>
</g>
<g>
	<path style="fill:#DD6A56;" d="M36.039,280l7.972-2.568c5.061-1.63,8.867-5.838,9.983-11.036l0.983-4.583
		c1.027-4.787,7.299-6.105,10.091-2.083c7.254,10.45,14.354,29.204-4.915,50.556s-38.651,16.208-49.788,10.061
		c-4.286-2.366-3.617-8.739,1.04-10.251l4.458-1.447c5.057-1.642,8.854-5.858,9.957-11.059l1.739-8.193
		C28.497,284.972,31.732,281.387,36.039,280z"/>
	<path style="fill:#DD6A56;" d="M475.96,280l-7.972-2.568c-5.061-1.63-8.867-5.838-9.983-11.036l-0.984-4.583
		c-1.027-4.787-7.299-6.105-10.09-2.083c-7.254,10.45-14.354,29.204,4.915,50.556s38.651,16.208,49.788,10.061
		c4.286-2.366,3.617-8.739-1.04-10.251l-4.458-1.447c-5.057-1.642-8.854-5.858-9.957-11.059l-1.739-8.193
		C483.501,284.972,480.266,281.387,475.96,280z"/>
	<path style="fill:#DD6A56;" d="M255.999,443.556c-67.506,0-132.07-20.811-186.714-60.182
		c-24.445-17.613-29.983-51.708-12.369-76.152c17.614-24.446,51.709-29.983,76.152-12.37
		c35.952,25.904,78.461,39.597,122.931,39.597s86.977-13.693,122.93-39.597c24.444-17.612,58.539-12.076,76.152,12.37
		c17.613,24.445,12.075,58.539-12.37,76.152C388.069,422.745,323.504,443.556,255.999,443.556z"/>
</g>
<g style="opacity:0.2;">
	<path d="M367.311,381.049c-1.919,0-3.839-0.732-5.303-2.197c-2.929-2.929-2.929-7.678,0-10.607l30.851-30.851
		c2.929-2.929,7.678-2.929,10.606,0c2.929,2.929,2.929,7.678,0,10.607l-30.851,30.851
		C371.15,380.316,369.231,381.049,367.311,381.049z"/>
	<path d="M113.836,381.049c-1.919,0-3.839-0.732-5.303-2.197c-2.929-2.929-2.929-7.678,0-10.607l30.851-30.851
		c2.929-2.929,7.678-2.929,10.606,0c2.929,2.929,2.929,7.678,0,10.607l-30.851,30.851
		C117.675,380.316,115.756,381.049,113.836,381.049z"/>
</g>
<g>
	<ellipse style="fill:#F298B8;" cx="189.48" cy="395.287" rx="24.543" ry="19.545"/>
	<ellipse style="fill:#F298B8;" cx="322.51" cy="395.287" rx="24.543" ry="19.545"/>
</g>
<ellipse style="fill:#495059;" cx="256" cy="380.267" rx="19.788" ry="22.14"/>
<path style="opacity:0.05;enable-background:new    ;" d="M323.806,436.369c-157.618-9.632-208.925-90.032-160.89-123.551
	c-10.35-5.118-20.33-11.11-29.847-17.967c-24.443-17.612-58.538-12.076-76.152,12.37c-17.613,24.445-12.075,58.539,12.369,76.152
	c54.643,39.371,119.208,60.182,186.714,60.182C279.037,443.556,301.731,441.128,323.806,436.369z"/>
<path d="M201.086,372.205V361.67c0-4.142-3.358-7.5-7.5-7.5s-7.5,3.358-7.5,7.5v10.535c0,4.142,3.358,7.5,7.5,7.5
	S201.086,376.347,201.086,372.205z M511.939,314.231c-0.499-5.226-4.043-9.649-9.028-11.268l-4.458-1.447
	c-2.499-0.811-4.391-2.912-4.936-5.482l-1.739-8.193c-1.493-7.036-6.673-12.775-13.518-14.979l-7.971-2.567
	c-2.502-0.806-4.398-2.902-4.95-5.472l-0.983-4.583c-1.1-5.125-5.137-9.102-10.284-10.133c-5.114-1.027-10.334,1.074-13.3,5.347
	c-4.308,6.206-8.551,14.905-8.844,25.301c-3.587-1.289-7.314-2.268-11.157-2.893c-12.696-2.061-25.42-0.174-36.771,5.296
	c-2.788-1.37-5.654-2.51-8.586-3.437c-2.884-6.616-5.457-13.411-7.623-20.267c-8.968-28.38-11.627-57.542-7.905-86.677
	c0.525-4.109-2.38-7.865-6.489-8.39c-4.111-0.53-7.865,2.38-8.39,6.489c-4,31.307-1.147,62.63,8.481,93.098
	c1.36,4.305,2.864,8.591,4.497,12.829c-38.464-2.294-74.901-15.281-106.114-37.747c-6.24-46.676-1.881-93.185,12.98-138.289
	c3.934-11.937,12.28-21.628,23.502-27.288c7.666-3.867,16.049-5.532,24.397-4.947c0.158,0.017,0.315,0.032,0.473,0.039
	c3.713,0.298,7.416,1.036,11.043,2.232c5.172,1.704,9.92,4.239,14.104,7.475c0.13,0.109,0.261,0.216,0.398,0.316
	c5.292,4.187,9.657,9.506,12.786,15.711c5.659,11.222,6.61,23.976,2.676,35.914c-0.667,2.027-1.313,4.086-1.919,6.121
	c-1.182,3.97,1.079,8.146,5.049,9.328c3.971,1.182,8.146-1.079,9.328-5.049c0.564-1.896,1.167-3.817,1.789-5.707
	c5.187-15.742,3.934-32.562-3.53-47.361c-1.753-3.477-3.81-6.735-6.119-9.766c9.825-3.412,16.84-10.079,21.459-16.056
	c3.181-4.115,3.609-9.726,1.092-14.292c-2.535-4.599-7.549-7.246-12.762-6.754l-4.667,0.443c-2.613,0.251-5.186-0.928-6.708-3.07
	l-4.85-6.828c-4.165-5.863-11.196-9.073-18.356-8.376l-8.336,0.811c-2.618,0.258-5.188-0.916-6.714-3.055l-2.724-3.815
	c-3.044-4.266-8.326-6.311-13.464-5.214c-5.1,1.091-9.057,5.092-10.081,10.191c-2.449,12.192-0.653,23.412,5.028,32.792
	c-5.54,1.081-10.968,2.915-16.146,5.526c-14.8,7.463-25.807,20.244-30.994,35.986c-13.96,42.368-19.082,85.925-15.286,129.736
	c-29.212-25.933-50.071-59.264-60.585-97.009c-4.447-15.967-14.846-29.246-29.281-37.393c-3.391-1.913-6.913-3.477-10.519-4.711
	c6.266-8.301,8.387-17.744,8.9-25.281c0.353-5.189-2.412-10.089-7.044-12.484c-4.664-2.41-10.302-1.827-14.362,1.488l-3.631,2.964
	c-2.035,1.662-4.828,2.114-7.282,1.181l-7.829-2.976c-6.723-2.555-14.353-1.31-19.914,3.252l-6.475,5.31
	c-2.032,1.666-4.822,2.125-7.28,1.197l-4.386-1.655c-4.903-1.851-10.434-0.611-14.089,3.158c-3.63,3.744-4.693,9.269-2.708,14.077
	c4.753,11.507,12.499,19.837,22.454,24.468c-15.412,15.329-22.347,38.317-16.112,60.704c11.875,42.633,32.223,82.223,59.639,116.455
	c-7.644-1.72-15.62-1.987-23.586-0.692c-3.843,0.624-7.57,1.604-11.157,2.893c-0.293-10.396-4.536-19.095-8.845-25.301
	c-2.966-4.272-8.184-6.371-13.3-5.346c-5.148,1.031-9.185,5.009-10.284,10.133l-0.983,4.583c-0.551,2.569-2.448,4.665-4.949,5.472
	l-7.971,2.567c-6.845,2.204-12.025,7.944-13.519,14.98l-1.738,8.192c-0.546,2.57-2.438,4.671-4.936,5.482l-4.459,1.448
	c-4.985,1.618-8.529,6.041-9.028,11.267c-0.496,5.191,2.125,10.17,6.68,12.684c7.598,4.193,15.369,6.284,22.993,6.284
	c3.299,0,6.57-0.393,9.788-1.175c-0.636,5.601-0.522,11.322,0.406,17.039c2.657,16.361,11.527,30.707,24.975,40.397
	c18.217,13.125,37.749,24.374,58.052,33.435c3.784,1.687,8.217-0.01,9.905-3.792c1.688-3.783-0.01-8.218-3.792-9.906
	c-19.371-8.644-38.009-19.379-55.396-31.907c-10.197-7.348-16.923-18.226-18.938-30.632c-1.377-8.478-0.438-16.975,2.637-24.76
	c0.062-0.141,0.122-0.283,0.175-0.428c1.403-3.452,3.223-6.763,5.457-9.863c3.183-4.418,7.031-8.181,11.376-11.195
	c0.144-0.092,0.287-0.185,0.424-0.286c5.586-3.784,11.974-6.344,18.833-7.458c12.403-2.016,24.853,0.922,35.05,8.269
	c37.237,26.83,81.262,41.012,127.315,41.012c46.052,0,90.077-14.182,127.314-41.012c10.197-7.348,22.646-10.285,35.051-8.269
	c6.858,1.114,13.245,3.674,18.831,7.457c0.139,0.103,0.283,0.197,0.429,0.289c4.344,3.014,8.19,6.776,11.373,11.192
	c2.235,3.101,4.055,6.413,5.459,9.867c0.052,0.141,0.111,0.28,0.171,0.418c3.077,7.787,4.017,16.286,2.639,24.766
	c-2.015,12.406-8.741,23.285-18.939,30.632C384.971,415.736,321.923,436.058,256,436.058c-32.235,0-63.953-4.862-94.272-14.452
	c-3.948-1.248-8.163,0.94-9.413,4.889c-1.249,3.949,0.94,8.164,4.889,9.413c31.784,10.053,65.024,15.15,98.795,15.15
	c28.991,0,57.447-3.765,84.85-11.095c7.975,7.255,16.338,14.154,24.913,20.543c10.828,8.068,23.685,12.307,36.946,12.307
	c3.018,0,6.059-0.22,9.099-0.664c5.733-0.837,11.224-2.454,16.375-4.749c0.741,10.94,5.734,21.15,14.744,29.721
	c2.472,2.351,5.704,3.591,8.99,3.59c1.724,0,3.464-0.341,5.116-1.043c4.833-2.051,7.983-6.763,8.024-12.004l0.037-4.687
	c0.021-2.628,1.454-5.065,3.74-6.359l7.287-4.126c6.258-3.542,10.171-10.21,10.211-17.404l0.046-8.374
	c0.014-2.628,1.442-5.068,3.726-6.368l4.074-2.319c4.555-2.593,7.132-7.641,6.564-12.86c-0.564-5.185-4.139-9.53-9.106-11.07
	c-7.213-2.237-16.781-3.662-26.779-0.813c0.461-11.24-2.142-22.583-7.823-32.75c7.875-8.751,13.106-19.573,15.039-31.47
	c0.929-5.717,1.042-11.438,0.407-17.039c3.218,0.782,6.489,1.175,9.789,1.175c7.624,0,15.396-2.091,22.993-6.284
	C509.813,324.401,512.435,319.422,511.939,314.231z M306.76,29.298l0.016,0.021c4.632,6.491,12.434,10.042,20.376,9.27l8.336-0.811
	c1.823-0.178,3.615,0.641,4.676,2.133l4.85,6.828c4.618,6.501,12.422,10.076,20.354,9.317l0.026-0.003
	c-5.629,5.793-12.23,8.806-19.678,8.996c-5.057-3.617-10.683-6.493-16.756-8.494c-4.086-1.346-8.244-2.249-12.421-2.732
	C309.193,47.424,305.913,39.197,306.76,29.298z M63.979,289.42c-4.972,3.731-9.409,8.229-13.148,13.417
	c-2.515,3.49-4.629,7.184-6.347,11.021c-8.316,5.077-17.148,5.726-26.332,1.934l0.026-0.008c7.583-2.462,13.323-8.836,14.979-16.636
	l1.738-8.192c0.38-1.792,1.7-3.254,3.444-3.816l7.972-2.567c7.589-2.445,13.343-8.806,15.016-16.602l0.005-0.025
	C65.16,275.059,66.041,282.257,63.979,289.42z M64.693,75.371l0.025,0.01c7.46,2.814,15.923,1.424,22.089-3.633l6.476-5.311
	c1.417-1.161,3.36-1.479,5.072-0.828l7.83,2.976c7.453,2.833,15.92,1.459,22.096-3.582l0.02-0.016
	c-1.455,7.945-5.263,14.118-11.349,18.422c-6.214-0.193-12.489,0.547-18.649,2.263c-4.172,1.162-8.124,2.729-11.829,4.642
	C76.804,89.085,69.498,84.072,64.693,75.371z M255.999,326.948c-35.924,0-70.517-9.27-101.18-26.96
	c-40.641-38.656-70.095-87.706-85.193-141.914c-6.962-24.994,7.708-50.991,32.702-57.953c5.243-1.46,10.596-1.995,15.87-1.635
	c0.173,0.019,0.347,0.036,0.521,0.042c6.725,0.536,13.31,2.527,19.36,5.942c10.946,6.177,18.831,16.246,22.203,28.354
	c12.315,44.213,37.832,82.79,73.793,111.56c35.958,28.769,79.194,45.199,125.034,47.513c3.068,0.154,6.063,0.611,8.981,1.334
	C334.837,315.314,296.253,326.948,255.999,326.948z M440.571,438.858c-2.284,3.065-4.893,5.799-7.763,8.178
	c-0.119,0.092-0.233,0.19-0.347,0.289c-6.498,5.281-14.319,8.737-22.82,9.979c-12.438,1.816-24.836-1.319-34.915-8.829
	c-5.759-4.291-11.42-8.823-16.922-13.546c31.013-10.144,60.475-24.988,87.589-44.267
	C452.745,406.193,451.106,424.72,440.571,438.858z M461.413,431.254c6.213-4.135,13.35-5.467,21.293-3.959l-0.022,0.013
	c-6.93,3.944-11.262,11.348-11.306,19.321l-0.046,8.374c-0.01,1.832-1.006,3.531-2.601,4.434l-7.288,4.126
	c-6.938,3.928-11.287,11.322-11.35,19.295v0.027c-6.382-7.615-8.425-16.233-6.09-25.692c3.141-2.795,6.025-5.923,8.596-9.372
	C456.435,442.672,459.367,437.08,461.413,431.254z M467.513,313.857c-1.719-3.837-3.832-7.53-6.347-11.019
	c-3.738-5.188-8.174-9.686-13.147-13.417c-2.063-7.163-1.18-14.361,2.647-21.475l0.005,0.025
	c1.673,7.795,7.427,14.157,15.017,16.602l7.972,2.568c1.744,0.561,3.063,2.023,3.443,3.815l1.739,8.193
	c1.655,7.799,7.395,14.174,14.979,16.636l0.026,0.008C484.663,319.583,475.83,318.934,467.513,313.857z M325.912,372.205V361.67
	c0-4.142-3.358-7.5-7.5-7.5s-7.5,3.358-7.5,7.5v10.535c0,4.142,3.358,7.5,7.5,7.5C322.555,379.705,325.912,376.347,325.912,372.205z
	 M283.287,380.265c0-16.345-12.241-29.642-27.288-29.642c-15.046,0-27.288,13.297-27.288,29.642s12.241,29.643,27.288,29.643
	S283.287,396.611,283.287,380.265z M243.712,380.265c0-8.074,5.512-14.642,12.288-14.642c6.775,0,12.288,6.569,12.288,14.642
	c0,8.074-5.512,14.643-12.288,14.643S243.712,388.339,243.712,380.265z"/>
<g>
</g>
<g>
</g>
<g>
</g>
<g>
</g>
<g>
</g>
<g>
</g>
<g>
</g>
<g>
</g>
<g>
</g>
<g>
</g>
<g>
</g>
<g>
</g>
<g>
</g>
<g>
</g>
<g>
</g>
</svg>
